<svg width="49" height="52" viewBox="0 0 49 52" fill="none" xmlns="http://www.w3.org/2000/svg">
<path fill-rule="evenodd" clip-rule="evenodd" d="M24.4057 39.668C31.76 39.668 37.7167 33.403 37.7167 25.668C37.7167 17.933 31.76 11.668 24.4057 11.668C17.0514 11.668 11.0947 17.933 11.0947 25.668C11.0947 33.403 17.0514 39.668 24.4057 39.668ZM24.4057 34.999C29.3041 34.999 33.2774 30.82 33.2774 25.668C33.2774 20.516 29.3041 16.337 24.4057 16.337C19.5073 16.337 15.5339 20.516 15.5339 25.668C15.5339 30.82 19.5073 34.999 24.4057 34.999Z" fill="white"/>
<path fill-rule="evenodd" clip-rule="evenodd" d="M1.45089 7.644C0 10.64 0 14.56 0 22.4V28.931C0 36.771 0 40.691 1.45089 43.687C2.72875 46.319 4.76532 48.461 7.26778 49.805C10.1163 51.331 13.8434 51.331 21.2975 51.331H27.5071C34.9612 51.331 38.6883 51.331 41.5369 49.805C44.0393 48.461 46.0759 46.319 47.3537 43.687C48.8046 40.691 48.8046 36.771 48.8046 28.931V22.4C48.8046 14.56 48.8046 10.64 47.3537 7.644C46.0759 5.012 44.0393 2.87 41.5369 1.526C38.6883 0 34.9612 0 27.5071 0H21.2975C13.8434 0 10.1163 0 7.26778 1.526C4.76532 2.87 2.72875 5.012 1.45089 7.644ZM27.5138 4.669H21.3042C17.5039 4.669 14.9216 4.676 12.9249 4.844C10.9815 5.012 9.98322 5.313 9.29105 5.684C7.62052 6.58 6.26281 8.008 5.41091 9.765C5.05817 10.493 4.77198 11.543 4.61225 13.587C4.44586 15.687 4.44586 18.403 4.44586 22.4V28.931C4.44586 32.928 4.45252 35.644 4.61225 37.744C4.77198 39.788 5.05817 40.838 5.41091 41.566C6.26281 43.323 7.62052 44.751 9.29105 45.647C9.98322 46.018 10.9815 46.319 12.9249 46.487C14.9216 46.662 17.5039 46.662 21.3042 46.662H27.5138C31.314 46.662 33.8964 46.655 35.893 46.487C37.8364 46.319 38.8347 46.018 39.5269 45.647C41.1974 44.751 42.5551 43.323 43.407 41.566C43.7598 40.838 44.046 39.788 44.2057 37.744C44.3721 35.644 44.3721 32.928 44.3721 28.931V22.4C44.3721 18.403 44.3654 15.687 44.2057 13.587C44.046 11.543 43.7598 10.493 43.407 9.765C42.5551 8.008 41.1974 6.58 39.5269 5.684C38.8347 5.313 37.8364 5.012 35.893 4.844C33.8964 4.676 31.314 4.669 27.5138 4.669Z" fill="white"/>
</svg>
